<?xml version="1.0" encoding="utf-8"?>
<!-- Generator: Adobe Illustrator 23.1.0, SVG Export Plug-In . SVG Version: 6.00 Build 0)  -->
<svg version="1.1" id="Laag_1" xmlns="http://www.w3.org/2000/svg" xmlns:xlink="http://www.w3.org/1999/xlink" x="0px" y="0px"
	 viewBox="0 0 401.6 306.4" style="enable-background:new 0 0 401.6 306.4;" xml:space="preserve">
<style type="text/css">
	.st0{fill:#FFFFFF;}
</style>
<g id="_x37_xIdeA.tif">
	<g id="_x37_xIdeA.tif_1_">
		<g>
			<path class="st0" d="M190.7,145.4c0,38,0,76,0,114c0,2.8,1,7.5-2.5,7.6c-4.1,0-2.2-4.7-2.3-7.3c-0.3-8-1-8.9-8.9-8.9
				c-9.5,0-18.9,0-28.4,0c-7.7,0-8.6,1-8.7,8.5c0,1.8,0,3.7-0.1,5.5c-0.1,1.2-0.5,2.4-1.9,2.5c-1.4,0.2-2.1-1-2.4-2.1
				c-0.3-1.3-0.4-2.6-0.4-3.9c0-10.1-0.1-20.2,0-30.4c0-5.9,1.7-7.6,7.8-7.7c12.5-0.1,24.9,0,37.4-0.1c1.9,0,4.8,0.9,4.7-2.6
				c0-3.4-2.8-2.6-4.8-2.7c-16.9,0-33.9,0.1-50.8-0.1c-4.7,0-6.3,1.8-5.9,6.2c0.2,2.1,0,4.3-0.1,6.5c-0.1,1.5-0.4,3.2-2.3,3.2
				c-2.2,0-2.1-1.8-2.1-3.3c-0.1-7.8-0.1-15.6,0-23.4c0-4-1.6-6.2-5.8-6.4c-4.1-0.2-6.3,1.5-6.4,5.7c-0.1,2.3,0,4.6-0.1,7
				c-0.1,1.6,0.1,3.8-2.1,3.9c-2.4,0.1-2.6-2.3-2.7-4c-0.2-2.5-0.3-5-0.2-7.5c0.1-4-2.1-5.2-5.6-5.1c-3.4,0.1-5.8,1.2-5.9,5.1
				c0,2.7,0,5.3-0.1,8c-0.1,1.7-0.4,3.6-2.6,3.5c-1.8-0.1-2.2-1.7-2.2-3.4c0-2.7,0-5.3,0-8c0-4.3-2.7-5.2-6.3-5.2
				c-3.5,0-5.7,1.3-5.4,5.4c0.2,2.6,0,5.3-0.1,8c-0.1,1.6-0.9,3.2-2.5,3.3c-2,0.1-2.1-1.8-2.2-3.3c-0.1-2.3-0.1-4.6-0.1-7
				c0-4.3-1.9-6.4-6.3-6.4c-4.2,0.1-6,2.2-6,6.2c0,2.5,0,5-0.1,7.5c0,1.5-0.6,2.8-2.1,2.9c-1.3,0.1-2.2-1.2-2.3-2.2
				c-0.6-7.3-0.8-14.6,0.1-21.8c0.2-1.7,1.8-2.7,3.7-2.7c2.2-0.1,4.3-0.3,6.5-0.3c38,0,76.1,0,114.1,0c2,0,4-0.1,6-0.3
				c1.9-0.2,3-1.2,2.9-3.3c-0.1-2.2-1.7-2.1-3.2-2.2c-1.2-0.1-2.3,0-3.5,0c-43.5,0-87.1,0-130.6,0c-7.9,0-7.8,0-8,8.1
				c0,2.1-0.2,4.3-0.6,6.4c-0.2,0.9-1.1,1.7-2.2,1.6c-1.2-0.1-1.7-1-1.7-2.1c0-1-0.1-2-0.1-3c0-22.2,0-44.5,0-66.7
				c0-0.8,0-1.7,0-2.5c0-1.2,0.2-2.4,1.8-2.5c1.4-0.1,2.3,0.8,2.4,2c0.3,2.1,0.4,4.3,0.4,6.4c0.1,7.4,0.2,7.6,7.5,7.6
				c36.2,0,72.4,0,108.7,0c8,0,15.9,0.1,23.9,0c2.1,0,5.1,1,5-2.9c-0.1-3.5-2.9-2.7-4.8-2.7c-13.1-0.1-26.2,0-39.4,0
				c-25.8,0-51.5,0-77.3,0c-2.5,0-5-0.1-7.5-0.4c-2.9-0.3-4.5-2-4.6-4.9c-0.1-6-0.1-11.9,0-17.9c0-1.9,0.6-4,2.8-3.9
				c2.1,0.1,2,2.3,2,3.9c0,2,0,4,0,6c0,4.2,1.7,6.5,6.2,6.5c4.3,0,5.9-2.3,6.1-6.2c0.1-2.5,0-5,0.2-7.5c0.1-1.3,0.2-2.9,2.1-2.8
				c1.5,0.1,2.3,1.3,2.4,2.8c0.2,2.6,0.4,5.3,0.2,7.9c-0.3,4.1,1.7,5.7,5.6,5.7c4.1,0,6.3-1.6,6.1-5.9c-0.1-1.8-0.1-3.6,0-5.5
				c0.1-2.1-0.5-5.1,2.5-5c2.8,0.1,2.2,3.2,2.3,5.2c0.1,2,0,4,0.1,6c0.1,3.8,2.3,5.1,5.8,5.2c3.5,0,5.7-1.1,5.7-5.1
				c-0.1-2.8,0.1-5.6,0.3-8.4c0.1-1.5,0.7-3.1,2.7-2.9c1.7,0.2,1.9,1.7,1.9,3c0.1,2.3,0.1,4.6,0.1,7c0.1,4,1.5,6.6,6.2,6.5
				c4.6-0.1,6.1-2.5,6.1-6.6c0-6.6,0-13.3,0-19.9c0-1.2,0-2.3,0-3.5c0.1-1.5,0-3.3,2.2-3.2c2,0.1,2.2,1.8,2.3,3.3
				c0.1,2.5,0.2,5,0.1,7.5c-0.1,3.5,1.2,5.2,4.9,5.2c17.6-0.1,35.2,0,52.8-0.1c1.8,0,3.9,0.2,3.9-2.6c0-3.2-2.4-2.6-4.3-2.6
				c-12.3,0-24.6,0-36.9,0c-7.3,0-8.8-1.5-8.8-8.7c0-9.6,0-19.2,0-28.9c0-1.3,0-2.7,0.2-4c0.3-1.3,1-2.7,2.5-2.7
				c1.6,0,2.1,1.5,2.1,2.9c0.1,2.7,0,5.3,0.1,8c0.1,3.6,1.8,5.7,5.5,5.7c11.8,0.1,23.6,0.1,35.4,0c2,0,4.1-0.6,4.2-3.3
				c0.1-3.1-2.3-2.7-4.3-2.7c-7.1,0-14.3,0-21.4,0c-5.6,0-6.9-1.2-7-6.6c-0.1-10.9-0.1-21.9,0-32.8c0-1.7-0.4-4.3,2.1-4.4
				c2.5,0,2.7,2.5,2.7,4.5c0,1.8,0.2,3.7,0,5.5c-0.5,4.5,1.6,6.4,6,6.4c4.2-0.1,6-2.1,5.7-6.3c-0.2-2.6,0-5.3,0.2-7.9
				c0.1-1.2,1-2.3,2.3-2.3c1.4,0,2,1.1,2,2.4c0.1,2.8,0.2,5.6,0.3,8.4c0.1,3.9,2.2,5.6,6,5.6c3.9,0.1,5.9-1.7,6.1-5.5
				c0.1-2.5,0.1-5,0.1-7.5c0-1.5-0.1-3.3,2.1-3.3c1.8,0,2.5,1.6,2.6,3.1c0.2,1.8,0.2,3.6,0.2,5.5
				C190.7,69.8,190.7,107.6,190.7,145.4z M112.6,173.3c21.7,0,43.5,0.1,65.2-0.1c2.4,0,7,2.1,6.9-2.9c-0.1-4.2-4.4-3.1-7.1-3.1
				c-43.3-0.1-86.7-0.1-130-0.1c-1.3,0-2.7,0.1-4,0.3c-1.8,0.4-3.7,0.8-3.5,3.3c0.2,2.2,2,2.4,3.7,2.4c1.5,0.1,3,0.1,4.5,0.1
				C69.7,173.3,91.2,173.3,112.6,173.3z M112.6,150.7c-13.9,0-27.9,0-41.8,0c-8.8,0-17.6,0-26.4,0c-2.6,0-5,0.5-4,3.8
				c0.6,2,2.7,2.2,4.6,2.3c5.3,0.1,10.6,0,15.9,0c39.2,0,78.3,0,117.5,0c2.6,0,6.4,0.7,6.3-3.6c-0.1-3.9-3.7-2.5-5.9-2.5
				C156.8,150.7,134.7,150.7,112.6,150.7z M154.8,123.3C154.8,123.3,154.8,123.3,154.8,123.3c8.3,0,16.6,0.1,24.9,0
				c2.2,0,5.2,0.4,5.2-3.1c0-3.3-2.7-3.2-5.1-3.2c-16.9,0-33.9,0-50.8,0c-2.5,0-5.1,0.1-5.2,3.1c-0.1,3.3,2.9,3.1,5.1,3.1
				C137.6,123.3,146.2,123.3,154.8,123.3z M154.3,206.8c8.5,0,16.9,0,25.4,0c2.3,0,5.1,0.3,5.1-3.1c0-3-2.7-3-4.8-3
				c-17.1-0.1-34.2-0.1-51.3,0c-2.1,0-4.9,0.1-4.9,2.9c0,3.1,2.7,3.2,5.1,3.2C137.4,206.7,145.8,206.8,154.3,206.8z M162.8,89.7
				c5.8,0,11.6,0,17.4,0c2.2,0,4.6-0.1,4.7-3.1c0.1-2.9-2.4-3-4.3-3c-11.9-0.1-23.8-0.1-35.8,0c-1.8,0-4.4,0.1-4.2,3
				c0.1,3,2.5,3.1,4.8,3.1C151.2,89.7,157,89.7,162.8,89.7z M163.4,234.3C163.4,234.3,163.4,234.3,163.4,234.3c-6.3,0-12.6,0-18.9,0
				c-2.1,0-3.7,0.6-3.8,2.9c-0.1,2.4,1.8,3.1,3.6,3.1c12.2,0.1,24.5,0.1,36.7,0c1.9,0,3.7-0.7,3.7-3.1c0-2.7-1.9-3.1-4.1-3.1
				C175,234.3,169.2,234.3,163.4,234.3z M171.3,56.2c3.5,0,6.9,0,10.4,0c1.9,0,3.2-0.6,3.3-2.8c0.1-2.3-1.3-2.9-3.1-3
				c-7.1-0.5-14.2-0.6-21.2,0c-1.7,0.1-3.4,0.9-3.2,3c0.2,2,1.6,2.7,3.5,2.7C164.3,56.2,167.8,56.2,171.3,56.2z"/>
			<path class="st0" d="M290.6,161.9c0,11.3,0,22.6,0,33.8c0,1.7,0.7,4.2-1.8,4.5c-2.8,0.3-2.6-2.4-2.8-4.3
				c-0.9-11.6-0.9-11.6-12.5-11.6c-9.3,0-18.6,0-27.9,0c-1.9,0-4.5-0.5-4.6,2.4c-0.1,2.9,2.5,3.3,4.6,3.3c7,0.2,13.9,0,20.9,0.2
				c6.8,0.1,7.9,1.2,7.9,7.8c0,9.8,0,19.6,0,29.4c0,1.5-0.1,3-0.5,4.4c-0.3,1.2-1.2,2.1-2.6,1.8c-1.1-0.2-1.6-1.1-1.7-2.2
				c-0.1-2.7-0.1-5.3-0.1-8c-0.1-3.7-1.4-5.8-5.7-5.7c-11.6,0.2-23.3,0-34.9,0.1c-1.9,0-4.3-0.6-4.4,2.5c-0.1,3.6,2.7,2.7,4.6,2.8
				c6.6,0.1,13.3,0,19.9,0.1c7.1,0.1,7.9,0.9,8,8.1c0,5,0.1,10-0.1,14.9c-0.1,1.5,0.8,4.3-2.2,4c-2.4-0.2-2.3-2.4-2.4-4.3
				c-0.1-2.3-0.1-4.6,0-7c0.2-4.2-2.3-4.9-5.8-4.9c-3.3,0.1-6,0.5-5.9,4.8c0.1,2.8,0,5.6-0.1,8.5c-0.1,1.6-0.9,3-2.7,2.9
				c-1.7-0.1-1.9-1.6-2-3c-0.1-2.3-0.1-4.6-0.1-7c0-3.9-1.2-6.1-5.7-6.3c-4.6-0.1-6.4,1.9-6.5,6.1c-0.1,2.3,0,4.6-0.1,7
				c0,1.5,0,3.3-2.1,3.3c-1.9,0-2.4-1.6-2.6-3.1c-0.2-1-0.2-2-0.2-3c0-15.9,0-31.8,0-47.8c0-1.2,0-2.3,0.3-3.5
				c0.3-1.3,0.9-2.6,2.6-2.5c1.8,0.1,2,1.5,2,2.9c0.1,2.7,0,5.3,0.1,8c0.2,3.5,1.8,5.4,5.7,5.3c11.6-0.1,23.3-0.1,34.9,0
				c2.2,0,4.2-0.3,4.3-2.9c0.1-2.7-2.2-3.1-4.2-3.1c-7.3-0.1-14.6-0.2-21.9,0c-4.6,0.1-6.7-1.5-6.6-6.3c0.1-21.6,0.1-43.1,0-64.7
				c0-4.6,1.7-6.7,6.5-6.5c7.1,0.2,14.3,0.1,21.4,0c2.1,0,4.8,0.1,4.9-2.9c0.1-3.2-2.5-3.3-5-3.3c-11.1,0-22.3,0.2-33.4-0.1
				c-4.9-0.1-6.6,2.2-6.6,6.5c0,2.5,0,5-0.1,7.5c0,1.3-0.5,2.3-1.9,2.4c-1.4,0.1-2.2-0.8-2.5-2c-0.3-1.3-0.4-2.6-0.4-3.9
				c0-15.9,0-31.8,0-47.8c0-1.2,0-2.3,0.3-3.5c0.3-1.5,1-3,2.9-2.7c1.6,0.3,1.7,1.8,1.7,3.2c0,2.3,0,4.6,0.1,7c0,4.3,2,6.3,6.5,6.1
				c4.4-0.1,5.9-2.3,5.8-6.3c0-2.2,0-4.3,0.1-6.5c0-1.5,0.2-3.4,2.1-3.4c2.1,0,2.6,1.7,2.6,3.5c0,2.7,0.2,5.3,0,8
				c-0.2,4.1,2.5,4.5,5.6,4.6c3.2,0,6.2-0.2,6.1-4.6c0-2.8,0-5.6,0.1-8.5c0.1-1.6,0.8-3.1,2.6-3.1c1.9,0,1.9,1.7,1.9,2.9
				c0.1,6.6,0.1,13.3-0.1,19.9c-0.1,4.2-3.5,4.4-6.5,4.5c-7.1,0.1-14.3,0-21.4,0.1c-1.8,0-4.4-0.8-4.5,2.4c-0.1,3.5,2.7,2.8,4.6,2.8
				c11.6,0.1,23.3-0.1,34.9,0.1c4,0.1,5.4-1.8,5.5-5.3c0.1-2.5,0-5,0.1-7.5c0-1.5,0.1-3.3,2.1-3.3c1.9,0,2.3,1.7,2.6,3.2
				c0.2,0.8,0.1,1.7,0.1,2.5c0,10.4-0.1,20.9,0,31.3c0.1,4.6-2.2,6.7-6.6,6.8c-7.3,0.1-14.6,0.1-21.9,0.2c-2.1,0-4.9-0.1-4.9,2.8
				c0,3,2.7,2.8,4.9,2.8c11.5,0,22.9-0.1,34.4,0c4.1,0.1,5.8-1.6,5.6-5.6c-0.1-2-0.1-4,0-6c0.2-1.9-0.2-4.6,2.7-4.4
				c2.7,0.1,1.9,2.7,1.9,4.3C290.7,139.4,290.6,150.7,290.6,161.9z M262.9,173.2c6.1,0,12.3,0,18.4,0c1.8,0,3.9,0.1,4.2-2.4
				c0.3-2.8-1.9-3.4-3.9-3.5c-12.1-0.1-24.2-0.2-36.3,0c-1.9,0-4.4,0.6-4.3,3.2c0.1,3,2.8,2.7,4.9,2.7
				C251.6,173.3,257.2,173.2,262.9,173.2z M263.5,150.8c-6,0-12,0-17.9,0c-2.1,0-4.4,0-4.6,2.6c-0.2,2.4,2.1,3.4,4.1,3.4
				c12.1,0.1,24.2,0.1,36.4,0c2,0,4.2-0.8,4-3.4c-0.2-2.8-2.6-2.5-4.5-2.6C275.2,150.8,269.3,150.8,263.5,150.8z"/>
			<path class="st0" d="M374.3,161.9c0,11.3,0,22.6,0,33.8c0,1.8,0.8,4.7-2.2,4.6c-2.5-0.1-2.4-2.8-2.5-4.7
				c-0.7-11.2-0.7-11.2-12.2-11.2c-9.3,0-18.6,0-27.9,0c-1.9,0-4.5-0.4-4.7,2.4c-0.1,2.7,2.4,3.4,4.6,3.4c7.1,0.1,14.3,0,21.4,0.1
				c6.2,0.1,7.2,1.2,7.3,7.3c0,5.1,0,10.3,0,15.4c0,1.9-0.6,4.2-2.6,4.2c-2.4,0-2.1-2.4-2.2-4.2c-0.6-12.4-0.6-12.4-12.9-12.4
				c-5.1,0-10.3-0.1-15.4,0c-3.8,0.1-5.4-1.7-5.4-5.4c0-22.1,0.1-44.1,0-66.2c0-4.4,2.1-5.9,6.1-5.8c7,0.1,14-0.1,20.9,0.1
				c4.7,0.1,6.7-2.2,6.7-6.6c0-2.3,0.1-4.6,0.1-7c0-1.5,0.5-2.8,2.1-2.9c1.3-0.1,2.2,1.1,2.3,2.2c0.7,7.3,1,14.6-0.1,21.8
				c-0.5,3-3.6,3.1-6.1,3.2c-7.1,0.2-14.3,0.1-21.4,0.2c-2.2,0-5-0.2-5,2.7c-0.1,3.3,2.9,3,5.2,3c11.3,0,22.6-0.1,33.9,0.1
				c4.1,0.1,5.8-1.5,5.5-5.6c-0.2-2.5-0.1-5,0.2-7.4c0.1-1.5,0.7-3.1,2.6-3c2.2,0.1,1.9,1.9,1.9,3.4
				C374.3,138.7,374.3,150.3,374.3,161.9z M346.6,173.3C346.6,173.2,346.6,173.2,346.6,173.3c6.5,0,12.9,0,19.4-0.1
				c1.6,0,3-0.4,3.3-2.3c0.3-2.2-1.1-3-2.9-3.3c-1.6-0.3-3.3-0.4-4.9-0.5c-6.8,0-13.6,0-20.4,0c-3.8,0-7.6-0.1-11.4,0.1
				c-2.2,0.1-4.8,0.6-4.8,3.3c0,3,2.7,2.8,4.8,2.8C335.3,173.3,341,173.3,346.6,173.3z M347.4,150.8c-6.1,0-12.2,0-18.3,0
				c-1.9,0-4,0.3-4.1,2.5c-0.1,2.4,1.8,3.4,4,3.5c2.5,0.1,5,0.1,7.4,0.1c9.3,0,18.5,0,27.8-0.1c2.3,0,5.1-0.2,5-3.4
				c-0.1-3.1-2.8-2.6-4.9-2.7C358.7,150.7,353.1,150.8,347.4,150.8z"/>
			<path class="st0" d="M340.7,94.2c0,6,0,11.9,0,17.9c0,3.5-1.7,5-5.3,4.9c-7.1-0.1-14.3,0.2-21.4-0.1c-4.7-0.2-6.2,1.9-6.1,6.1
				c0.1,2.3,0,4.6-0.2,6.9c-0.1,1.7-0.5,3.6-2.8,3.3c-2-0.2-1.9-2.1-2-3.5c-0.1-7.9-0.1-15.9-0.1-23.8c0-3.3,0.1-6.6,0-9.9
				c-0.1-4.5,1.8-6.6,6.6-6.5c6.8,0.3,13.6-0.1,20.4,0.1c4.4,0.1,6.5-1.5,6.1-6.1c-0.2-2.5,0-5,0.2-7.4c0.1-1.4,0.9-2.6,2.5-2.7
				c2-0.1,1.9,1.6,1.9,2.8C340.7,82.3,340.7,88.3,340.7,94.2C340.7,94.2,340.7,94.2,340.7,94.2z M321.6,106.1c3.6,0,7.3,0,10.9,0
				c1.8,0,3.3-0.2,3.2-2.6c-0.1-1.9-1.2-2.5-2.9-2.5c-7.3,0-14.5,0-21.8,0c-1.8,0-2.7,0.8-2.7,2.7c0,2,1.2,2.5,2.9,2.5
				C314.6,106,318.1,106,321.6,106.1z"/>
			<path class="st0" d="M340.7,229.8c0,5.8,0.1,11.6-0.1,17.4c0,1.3,0.3,3.3-2,3.2c-1.9-0.1-2.4-1.7-2.5-3.2c-0.2-2.5-0.3-5-0.1-7.4
				c0.2-4-1.4-5.7-5.5-5.6c-7.1,0.2-14.3,0-21.4,0.1c-4.1,0.1-6.2-1.7-6.2-5.9c0-11.3,0-22.5,0-33.8c0-1.5-0.3-3.7,2-3.9
				c2.6-0.2,2.6,2,2.9,3.8c0.1,0.3,0,0.7,0.1,1c0.7,11.2,0.7,11.2,11.8,11.2c5.1,0,10.3,0.1,15.4,0c3.8-0.1,5.6,1.5,5.5,5.2
				C340.7,217.9,340.7,223.9,340.7,229.8z M321.4,223.2C321.4,223.2,321.4,223.2,321.4,223.2c3.8,0,7.6,0,11.4-0.1
				c1.5,0,3-0.4,2.9-2.6c-0.1-1.8-1.1-2.7-2.8-2.7c-7.3,0-14.6,0-21.9,0c-1.8,0-2.7,0.8-2.7,2.7c-0.1,2,1,2.7,2.7,2.7
				C314.4,223.2,317.9,223.2,321.4,223.2z"/>
			<path class="st0" d="M173.4,271.4c0,2.8,0.1,5.6,0,8.4c-0.1,1.7,0.3,4.2-2.4,4c-2.3-0.2-2.2-2.5-2.3-4.3c-0.1-2.3-0.1-4.6,0-6.9
				c0.2-4.2-2.4-4.9-5.8-4.8c-3.3,0-6,0.5-5.9,4.8c0.1,2.8,0,5.6-0.1,8.4c-0.1,1.6-0.8,3.1-2.6,3c-1.8,0-1.9-1.7-1.9-3
				c-0.1-6.6-1-13.4,0.3-19.8c1.6-7.9,9-3.6,13.8-4.4c3.5-0.6,6.8,0.5,6.8,5.1C173.4,265.1,173.4,268.2,173.4,271.4z"/>
			<path class="st0" d="M324.4,254.3c0,3.3,0,6.6,0,9.9c0,1.7-0.7,3.2-2.4,3.2c-1.8,0-2.3-1.6-2.4-3.2c-0.1-2.8,0-5.6-0.1-8.4
				c-0.1-4.1-3-4.8-6.1-4.8c-3.1,0-5.4,0.9-5.3,4.8c0.1,3-0.1,6-0.4,8.9c-0.1,1.3-0.7,2.7-2.4,2.7c-1.8,0-2.1-1.5-2.1-2.8
				c-0.3-6.8-0.5-13.6,0.1-20.3c0.2-2.7,1.8-3.7,4.3-3.7c4,0,8,0,11.9,0c3.3,0,4.9,1.6,4.9,4.8C324.4,248.3,324.4,251.3,324.4,254.3
				C324.4,254.3,324.4,254.3,324.4,254.3z"/>
			<path class="st0" d="M324.4,69.3c0,0.7,0.1,1.3,0,2c-0.6,3.8,2.1,9.1-1.9,11.1c-5.2,2.6-11.4,1.3-17.1,0.6
				c-1.7-0.2-2.2-2-2.2-3.5c-0.1-6.6-0.1-13.3-0.1-19.9c0-1.3,0.4-2.9,2-3c1.9-0.1,2.5,1.6,2.6,3c0.3,3,0.4,6,0.4,8.9
				c0,3.9,2.4,4.7,5.5,4.6c3-0.1,5.7-0.9,5.9-4.6c0.1-2.2,0-4.3,0.1-6.5c0.1-2.2-0.6-5.5,2.6-5.5c2.8,0,2.3,3.1,2.3,5.2
				C324.5,64.4,324.4,66.9,324.4,69.3z"/>
			<path class="st0" d="M112.6,173.3c-21.4,0-42.8,0-64.2,0c-1.5,0-3,0-4.5-0.1c-1.7-0.1-3.5-0.2-3.7-2.4c-0.3-2.5,1.7-3,3.5-3.3
				c1.3-0.3,2.6-0.3,4-0.3c43.3,0,86.7,0,130,0.1c2.7,0,7-1.1,7.1,3.1c0.2,4.9-4.4,2.9-6.9,2.9C156.1,173.3,134.3,173.3,112.6,173.3
				z"/>
			<path class="st0" d="M112.6,150.7c22.1,0,44.1,0,66.2,0.1c2.2,0,5.8-1.4,5.9,2.5c0.2,4.2-3.6,3.6-6.3,3.6
				c-39.2,0.1-78.3,0-117.5,0c-5.3,0-10.6,0-15.9,0c-1.9,0-4-0.3-4.6-2.3c-1-3.4,1.4-3.9,4-3.8c8.8,0,17.6,0,26.4,0
				C84.7,150.7,98.7,150.7,112.6,150.7z"/>
			<path class="st0" d="M154.8,123.3c-8.6,0-17.3,0-25.9,0c-2.2,0-5.2,0.2-5.1-3.1c0.1-3.1,2.8-3.1,5.2-3.1c16.9,0,33.9,0,50.8,0
				c2.4,0,5.1-0.1,5.1,3.2c0,3.4-2.9,3-5.2,3.1C171.4,123.3,163.1,123.3,154.8,123.3C154.8,123.3,154.8,123.3,154.8,123.3z"/>
			<path class="st0" d="M154.3,206.8c-8.5,0-16.9,0-25.4,0c-2.4,0-5.2-0.1-5.1-3.2c0-2.8,2.8-2.9,4.9-2.9c17.1-0.1,34.2-0.1,51.3,0
				c2.1,0,4.8,0,4.8,3c0,3.4-2.8,3.1-5.1,3.1C171.2,206.8,162.8,206.8,154.3,206.8z"/>
			<path class="st0" d="M162.8,89.7c-5.8,0-11.6,0-17.4,0c-2.2,0-4.6-0.1-4.8-3.1c-0.1-2.9,2.4-3,4.2-3c11.9-0.1,23.8-0.1,35.8,0
				c1.8,0,4.4,0.2,4.3,3c-0.1,3-2.5,3.1-4.7,3.1C174.4,89.7,168.6,89.7,162.8,89.7z"/>
			<path class="st0" d="M163.4,234.3c5.8,0,11.6,0,17.4,0c2.2,0,4.1,0.4,4.1,3.1c0,2.4-1.9,3-3.7,3.1c-12.2,0.1-24.5,0.1-36.7,0
				c-1.8,0-3.7-0.7-3.6-3.1c0.1-2.3,1.7-2.9,3.8-2.9C150.8,234.3,157.1,234.3,163.4,234.3C163.4,234.3,163.4,234.3,163.4,234.3z"/>
			<path class="st0" d="M171.3,56.2c-3.5,0-6.9,0-10.4,0c-1.9,0-3.3-0.7-3.5-2.7c-0.2-2.1,1.5-2.9,3.2-3c7.1-0.6,14.2-0.5,21.2,0
				c1.8,0.1,3.2,0.7,3.1,3c-0.1,2.2-1.4,2.8-3.3,2.8C178.2,56.2,174.7,56.2,171.3,56.2z"/>
			<path class="st0" d="M262.9,173.2c-5.6,0-11.3,0-16.9,0c-2.1,0-4.8,0.3-4.9-2.7c-0.1-2.6,2.4-3.1,4.3-3.2
				c12.1-0.1,24.2-0.1,36.3,0c1.9,0,4.2,0.7,3.9,3.5c-0.3,2.5-2.4,2.4-4.2,2.4C275.1,173.3,269,173.2,262.9,173.2z"/>
			<path class="st0" d="M263.5,150.8c5.8,0,11.6,0,17.4,0c2,0,4.3-0.3,4.5,2.6c0.2,2.6-2,3.4-4,3.4c-12.1,0.1-24.2,0.1-36.4,0
				c-2.1,0-4.3-1-4.1-3.4c0.2-2.6,2.5-2.6,4.6-2.6C251.6,150.8,257.6,150.8,263.5,150.8z"/>
			<path class="st0" d="M346.6,173.3c-5.6,0-11.3,0-16.9,0c-2.2,0-4.9,0.2-4.8-2.8c0-2.7,2.6-3.2,4.8-3.3c3.8-0.1,7.6-0.1,11.4-0.1
				c6.8,0,13.6,0,20.4,0c1.6,0,3.3,0.2,4.9,0.5c1.7,0.3,3.2,1.1,2.9,3.3c-0.3,1.9-1.7,2.3-3.3,2.3
				C359.5,173.2,353.1,173.2,346.6,173.3C346.6,173.2,346.6,173.2,346.6,173.3z"/>
			<path class="st0" d="M347.4,150.8c5.6,0,11.2,0,16.9,0c2.1,0,4.8-0.5,4.9,2.7c0.1,3.2-2.7,3.4-5,3.4c-9.3,0.1-18.5,0.1-27.8,0.1
				c-2.5,0-5,0-7.4-0.1c-2.2-0.1-4.1-1.2-4-3.5c0.1-2.3,2.2-2.5,4.1-2.5C335.2,150.8,341.3,150.8,347.4,150.8z"/>
			<path class="st0" d="M321.6,106.1c-3.5,0-6.9,0-10.4,0c-1.7,0-2.8-0.5-2.9-2.5c0-1.9,0.8-2.7,2.7-2.7c7.3,0,14.5,0,21.8,0
				c1.7,0,2.8,0.6,2.9,2.5c0.1,2.4-1.4,2.6-3.2,2.6C328.8,106.1,325.2,106.1,321.6,106.1z"/>
			<path class="st0" d="M321.4,223.2c-3.5,0-7,0-10.4,0c-1.7,0-2.8-0.7-2.7-2.7c0.1-1.9,0.9-2.7,2.7-2.7c7.3,0,14.6,0,21.9,0
				c1.8,0,2.7,0.9,2.8,2.7c0.1,2.1-1.3,2.5-2.9,2.6C329,223.2,325.2,223.2,321.4,223.2C321.4,223.2,321.4,223.2,321.4,223.2z"/>
		</g>
	</g>
</g>
</svg>
