<?xml version="1.0" encoding="utf-8"?>
<!-- Generator: Adobe Illustrator 23.1.0, SVG Export Plug-In . SVG Version: 6.00 Build 0)  -->
<svg version="1.1" id="Laag_1" xmlns="http://www.w3.org/2000/svg" xmlns:xlink="http://www.w3.org/1999/xlink" x="0px" y="0px"
	 viewBox="0 0 71.3 75.3" style="enable-background:new 0 0 71.3 75.3;" xml:space="preserve">
<style type="text/css">
	.st0{fill:#FFFFFF;}
</style>
<g>
	<path class="st0" d="M38.1,7.6c0.3,5.7,3.9,5.7,8,5.5c3.1-0.2,6.2-0.2,9.4-0.1c0.9,0,2.4-2,2.6,0.8c0.1,2-0.3,3.1-2.6,3.1
		c-4.1-0.1-8.2,0-12.3,0c-1.3,0-3.2-0.3-3.3,1.3c-0.1,1.7,1.8,1.5,3.1,1.5c5.8,0,11.5-0.2,17.3,0.1c4.3,0.2,3.5-3.2,4.7-5.6
		c0.1,1.7,0.1,3.5,0.3,5.2c0.3,3.1-1.1,4.1-4,4.1c-6.1-0.1-12.2,0-18.2,0c-1.1,0-2.8-0.3-2.9,1.1c-0.2,2,1.8,1.5,2.9,1.5
		c7.9,0.1,15.8-0.2,23.7,0.1c4.1,0.2,3.2-3.2,4.7-6.7c0,6.1,0,10.7,0,15.3c-0.4-6.2-4.9-5-8.8-5c-18.7,0-37.5,0.1-56.2-0.1
		c-4.1,0-6.4,0.8-6.4,5.4c0-4.8,0-9.6,0-14.5c0,4.8,2.5,5.8,6.8,5.6c7.2-0.3,14.5-0.1,21.7-0.1c1.1,0,2.7,0.2,2.6-1.4
		c0-1.5-1.6-1.3-2.7-1.3c-5.8-0.1-11.5,0-17.3-0.1c-1.5,0-3-0.2-4.4-0.5c-1.6-0.4-1.2-1.8-1-2.9c0.2-1.5,1.2-1,2.2-0.8
		c6.7,1.2,13.4,0.3,20.1,0.5c1.2,0,3.1,0.4,3.1-1.5c0-1.9-1.9-1.3-3.1-1.4c-3.3-0.1-6.6-0.3-9.9,0c-5,0.6-6.5-1.6-5.8-6.2
		c0.1-1,0-1.9,0.5-3.5c-0.3,7.5,4.7,5.7,8.5,5.8c1.1,0,2.3-0.1,3.5,0c3.9,0.3,7.5,0.3,8.3-5.1c0,4.5-0.1,9.1,0,13.6
		c0.1,1.8-1,4.5,2.2,4.5c3.4,0,2.6-2.7,2.7-4.8C38.1,16.6,38.1,12.1,38.1,7.6z"/>
	<path class="st0" d="M65.1,48.2c-0.3-5.7-4.1-5.4-8.1-5.4c-14.3,0.1-28.6,0-42.9,0.1c-3.6,0-8.2-1.3-6.8,6.6c-0.5-0.5-1-1-1.6-1.5
		c0-4.2,0-8.4,0-12.6c0-2.2,1.4-2.7,3.3-2.7c17.6,0,35.2,0,52.8,0c1.9,0,3.2,0.6,3.2,2.8C65.1,39.7,65.1,43.9,65.1,48.2z M35.7,39.3
		c8.2,0,16.4,0,24.7,0c1.2,0,3.1,0.2,3.1-1.5c0-1.8-2-1.4-3.1-1.4c-16.4,0-32.9,0-49.3,0c-1.2,0-3.2-0.5-3.3,1.2
		c-0.2,2.3,2.1,1.7,3.3,1.7C19.3,39.3,27.5,39.3,35.7,39.3z"/>
	<path class="st0" d="M12.7,54.9c-0.1-0.5-0.3-0.9-0.3-1.4c-0.4-7.7-0.4-7.7,7.1-7.7c11.7,0,23.3,0,35,0c2.1,0,4.1-0.2,3.6,3
		c-0.2,1-0.2,1.2-1.6,1.2c-12.9-0.3-25.9-0.2-38.9-0.5C13.3,49.3,13.4,52,12.7,54.9z"/>
	<path class="st0" d="M52.1,61.2c-0.2-5.1-3.3-5.7-7.4-5.4c-8.1,0.6-16.3-0.9-24.4,0.8c-0.9,0.2-1.7,0-1.7-1.1
		c0-1.1-0.5-2.5,1.1-2.9c1.3-0.3,2.6-0.4,3.9-0.4c7.5,0,15.1,0.3,22.6-0.1c4.9-0.2,7.1,1.2,6.2,6.3C52.1,59.3,52.2,60.3,52.1,61.2z"
		/>
	<path class="st0" d="M25.7,68.8c-0.3-1.5-0.4-2-0.4-2.4c-0.3-7.7-0.3-7.7,7.1-7.7c3.4,0,6.9,0.1,10.3,0c2.4-0.1,2.6,1.3,2.5,3.2
		c-0.2,2.9-1.8,0.7-2.6,0.7c-3.3,0.1-6.5,0-9.8,0C27,62.5,27,62.5,25.7,68.8z"/>
	<path class="st0" d="M31.8,75.1c-0.2-3.7-1.4-6.8,0.7-9.1c1.3-1.4,4.2-1.3,5.5-0.2c2.7,2.3,0.8,5.7,1.4,9.6c-2.3-2.4-0.2-7-4.5-6.4
		C31.9,69.4,33.9,72.7,31.8,75.1z"/>
	<path class="st0" d="M44.9,0.9c2.1,1.8-0.2,5.5,3.4,5.7C52.1,6.7,50.4,2.9,52,0c-0.1,4.2,1.6,7.5-1.1,9.8c-1.3,1.1-4.2,1.2-5.5-0.3
		C43.4,7.1,44.3,4.1,44.9,0.9z"/>
	<path class="st0" d="M26.5,1.3c0,1.5,0,3,0,4.4c-0.1,4-3.4,5.9-6.9,4.1c-1.5-0.7-1-1.9-1-2.9c0-1.1,0.9-1.4,1.7-1
		C25.2,8.3,25.2,4.5,26.5,1.3z"/>
</g>
</svg>
